<svg width="213" height="218" viewBox="0 0 213 218" fill="none" xmlns="http://www.w3.org/2000/svg">
<path d="M106.023 0.209914C118.65 -0.159686 131.357 1.48335 143.366 5.46159C148.796 7.30623 154.125 9.50031 159.219 12.1413C164.974 15.2694 170.612 18.663 175.699 22.8093C180.739 26.9219 185.558 31.3202 189.942 36.1283C195.14 41.6085 199.502 47.8245 203.335 54.316C206.175 58.9696 208.322 63.9962 210.452 68.9992C211.934 72.6078 213.362 76.5189 212.683 80.4803C212.142 84.7475 209.79 88.9307 206.003 91.1114C202.66 93.4062 198.302 94.1757 194.388 93.0937C191.32 92.4385 188.269 90.9904 186.354 88.4301C184.459 85.8697 183.172 82.9298 181.986 79.9898C177.756 69.8022 171.449 60.485 163.587 52.7502C159.242 48.7518 154.622 45.0189 149.612 41.8806C136.189 33.4773 120.048 29.7914 104.296 30.7658C89.4011 31.4848 74.6843 36.6558 62.81 45.7211C58.6705 48.9064 54.5948 52.2362 51.1273 56.164C44.1721 63.929 38.4803 72.927 35.0396 82.7987C33.1513 88.5846 31.5855 94.5218 31.0748 100.603C30.2617 108.11 30.5943 115.717 31.851 123.156C33.2756 130.269 35.3555 137.308 38.6852 143.779C42.7676 151.786 48.1503 159.135 54.5847 165.411C58.8889 169.342 63.4451 173.028 68.3977 176.123C80.8599 183.925 95.6809 187.664 110.341 187.369C123.791 187.217 137.254 183.612 148.782 176.63C154.041 173.438 158.859 169.571 163.398 165.431C170.202 158.802 175.817 150.963 179.997 142.435C182.211 138.02 183.542 133.101 186.66 129.184C189.139 126.186 193.074 124.953 196.8 124.469C201.195 124.036 205.516 125.965 208.678 128.935C211.51 131.972 212.982 136.149 212.861 140.285C212.646 142.14 212.377 144.018 211.692 145.768C209 153.171 205.597 160.341 201.323 166.963C198.188 172.01 194.623 176.805 190.591 181.173C182.584 189.858 173.599 197.815 163.24 203.597C156.766 207.465 149.767 210.395 142.623 212.784C134.768 215.253 126.637 216.913 118.415 217.494C110.109 218.069 101.742 217.924 93.4767 216.883C86.2998 215.845 79.1934 214.202 72.3558 211.762C66.6169 209.605 60.9217 207.243 55.6431 204.101C50.6871 201.346 45.9462 198.201 41.5681 194.599C32.1231 186.767 23.4039 177.86 16.9393 167.373C12.8703 161.167 9.64475 154.444 6.92987 147.549C3.84875 139.714 2.07131 131.431 0.854989 123.122C-0.0387714 114.527 -0.0958908 105.845 0.629869 97.2333C0.922189 93.2584 1.75547 89.3474 2.53163 85.4464C4.06043 77.8898 6.58715 70.565 9.85307 63.5862C12.9745 56.6512 16.9763 50.1328 21.4619 44.0008C26.9555 36.6928 33.4839 30.2114 40.4627 24.328C45.123 20.3498 50.2268 16.9158 55.5759 13.9355C59.1812 11.7918 62.978 9.99423 66.8555 8.39823C79.2102 3.15327 92.6065 0.408154 106.023 0.209914Z" fill="url(#paint0_linear_24_25)"/>
<path d="M74.6809 52.8242C90.688 45.9899 108.772 44.8307 125.773 48.0664C130.628 49.0979 135.534 50.163 140.043 52.3C146.034 54.783 151.192 59.1342 154.827 64.4867C157.31 67.6317 158.778 71.4789 159.575 75.3765C160.284 79.5395 158.859 83.9949 155.953 87.0525C153.332 89.4381 149.895 91.0912 146.289 90.9635C142.496 91.1517 138.454 90.3352 135.44 87.9126C132.984 85.8059 131.922 82.6509 130.36 79.9226C128.831 76.9994 126.385 74.6373 123.66 72.8262C121.523 71.5125 119.14 70.6557 116.735 69.9837C111.416 68.9354 105.949 68.9286 100.563 69.315C96.0707 69.9434 91.3902 71.0757 87.8622 74.093C85.8025 75.9107 84.4115 78.6592 84.6971 81.4514C84.9659 84.5123 87.1129 87.1835 89.7942 88.5544C95.4121 91.5414 101.621 93.124 107.71 94.841C111.95 96.0237 116.214 97.0989 120.474 98.2211C125.743 99.6088 130.911 101.343 136.152 102.834C139.196 103.93 142.318 104.847 145.228 106.292C150.872 109.276 156.561 112.807 160.163 118.233C162.908 122.104 164.218 126.818 164.531 131.509C164.655 137.876 163.116 144.226 160.307 149.928C157.481 154.945 153.197 159 148.456 162.196C145.476 164.171 142.237 165.75 138.823 166.819C133.652 168.748 128.246 170.008 122.779 170.723C111.174 172.403 99.2627 171.671 87.8757 168.929C82.8122 167.827 77.92 165.965 73.4243 163.388C70.9211 161.802 68.6531 159.877 66.5565 157.791C64.7656 155.889 63.304 153.718 61.7853 151.605C59.9406 148.44 58.6134 144.915 58.1901 141.263C58.0758 138.051 58.9528 134.744 60.9285 132.171C62.044 130.444 63.8685 129.385 65.5989 128.37C68.3877 126.858 71.6469 126.879 74.728 127.016C77.8057 127.477 81.0179 128.404 83.2321 130.719C86.0209 133.76 86.9315 138.014 89.6665 141.095C91.0139 142.56 92.4553 143.964 94.1488 145.029C99.0577 148.131 104.995 148.856 110.687 148.873C113.714 148.816 116.782 148.924 119.755 148.245C123.438 147.529 127.198 146.356 130.071 143.843C132.208 141.978 133.619 139.096 133.205 136.226C132.836 133.132 130.558 130.521 127.806 129.207C120.827 125.645 113.103 123.982 105.623 121.832C100.12 120.421 94.5923 119.053 89.1794 117.313C85.2448 116.083 81.2498 115.038 77.3656 113.647C73.6763 112.377 70.3029 110.381 66.9866 108.358C63.1158 105.838 59.5274 102.713 57.1216 98.7251C54.8637 95.1534 53.7717 90.9702 53.4256 86.7938C53.2173 80.3258 54.7797 73.8645 57.5987 68.0651C61.4627 61.3149 67.7392 56.1774 74.6809 52.8242Z" fill="url(#paint1_linear_24_25)"/>
<defs>
<linearGradient id="paint0_linear_24_25" x1="106.499" y1="0.159256" x2="106.499" y2="217.828" gradientUnits="userSpaceOnUse">
<stop stop-color="#7A1D91"/>
<stop offset="1" stop-color="#401F71"/>
</linearGradient>
<linearGradient id="paint1_linear_24_25" x1="108.972" y1="46.3389" x2="108.972" y2="171.618" gradientUnits="userSpaceOnUse">
<stop stop-color="#7B1D91"/>
<stop offset="1" stop-color="#401F71"/>
</linearGradient>
</defs>
</svg>
